<svg width="150" height="123" viewBox="0 0 150 123" fill="none" xmlns="http://www.w3.org/2000/svg">
<g id="more btn">
<g id="button" filter="url(#filter0_d_51_165)">
<path d="M135.984 51.4566C146.934 78.2484 117.729 82.6952 84.9379 96.0967C52.147 109.498 25.0026 98.6419 14.0529 71.8501C3.10318 45.0582 23.9938 40.6126 56.7847 27.2111C89.5756 13.8096 125.034 24.6647 135.984 51.4566Z" fill="#AFF4C6" fill-opacity="0.7" shape-rendering="crispEdges"/>
</g>
<g id="Ellipse 5">
<circle cx="46.9265" cy="65.3667" r="8.05754" transform="rotate(-17.6532 46.9265 65.3667)" fill="#7F74E2"/>
<circle cx="46.9265" cy="65.3667" r="8.05754" transform="rotate(-17.6532 46.9265 65.3667)" fill="#7F74E2"/>
<circle cx="46.9265" cy="65.3667" r="8.05754" transform="rotate(-17.6532 46.9265 65.3667)" fill="#7F74E2"/>
</g>
<g id="Ellipse 6">
<circle cx="77.2278" cy="59.6453" r="8.05754" transform="rotate(-17.6532 77.2278 59.6453)" fill="#7F74E2"/>
<circle cx="77.2278" cy="59.6453" r="8.05754" transform="rotate(-17.6532 77.2278 59.6453)" fill="#7F74E2"/>
<circle cx="77.2278" cy="59.6453" r="8.05754" transform="rotate(-17.6532 77.2278 59.6453)" fill="#7F74E2"/>
</g>
<g id="Ellipse 7">
<circle cx="107.579" cy="53.9148" r="8.05754" transform="rotate(-17.6532 107.579 53.9148)" fill="#7F74E2"/>
<circle cx="107.579" cy="53.9148" r="8.05754" transform="rotate(-17.6532 107.579 53.9148)" fill="#7F74E2"/>
<circle cx="107.579" cy="53.9148" r="8.05754" transform="rotate(-17.6532 107.579 53.9148)" fill="#7F74E2"/>
</g>
</g>
<defs>
<filter id="filter0_d_51_165" x="0.640911" y="21.4688" width="148.162" height="101.325" filterUnits="userSpaceOnUse" color-interpolation-filters="sRGB">
<feFlood flood-opacity="0" result="BackgroundImageFix"/>
<feColorMatrix in="SourceAlpha" type="matrix" values="0 0 0 0 0 0 0 0 0 0 0 0 0 0 0 0 0 0 127 0" result="hardAlpha"/>
<feOffset dy="10.4773"/>
<feGaussianBlur stdDeviation="5.23863"/>
<feComposite in2="hardAlpha" operator="out"/>
<feColorMatrix type="matrix" values="0 0 0 0 0 0 0 0 0 0 0 0 0 0 0 0 0 0 0.25 0"/>
<feBlend mode="normal" in2="BackgroundImageFix" result="effect1_dropShadow_51_165"/>
<feBlend mode="normal" in="SourceGraphic" in2="effect1_dropShadow_51_165" result="shape"/>
</filter>
</defs>
</svg>
