<svg width="312" height="196" viewBox="0 0 312 196" fill="none" xmlns="http://www.w3.org/2000/svg">
<path d="M150.326 83.9829C148.811 80.2742 149.922 80.2504 146.326 78.4829C136.785 73.7923 129.777 86.1628 123.826 94.9829C118.736 102.529 112.166 108.055 115.326 116.483C118.326 124.483 127.986 113.116 134.326 105.983C138.326 101.483 141.262 98.7775 144.326 94.4829C147.128 90.5573 149.719 88.7672 150.326 83.9829ZM150.326 83.9829C153.826 64.4829 152.5 102.466 154 107.483C155.5 112.5 156.5 114.966 162 116.483C167.5 118 183.826 107.483 183.826 107.483C183.826 107.483 189.326 106.483 195.326 100.983C201.326 95.4829 203.661 93.7841 204.326 87.4829C204.789 83.102 204.993 79.5458 201.826 76.4829C196.057 70.9019 189.775 82.7344 186.326 89.9829C184.434 93.9609 182.453 96.7971 183.826 100.983C185.031 104.656 187.288 106.426 190.826 107.983C199.37 111.741 214.826 81.4829 214.826 81.4829M214.826 81.4829L236.326 36.4829M214.826 81.4829C214.826 81.4829 211.219 101.223 214.826 103.983C219.634 107.661 230.326 103.983 230.326 103.983M230.326 103.983C230.326 103.983 239.574 94.8405 245.5 88.9824M230.326 103.983L226.826 107.983C226.826 107.983 209.612 134.273 206.326 153.483C204.121 166.378 204.326 173.982 206.326 186.983C207.119 192.133 215.961 193.96 219.326 189.983C230.326 176.982 230.092 171.35 234.826 158.483C244.161 133.111 245.5 88.9824 245.5 88.9824M245.5 88.9824C243 84.9824 267.826 76.4829 267.826 76.4829M267.826 76.4829C266.927 78.5302 286 58.4829 284 59.4829C282 60.4829 291.5 55.9829 295.5 58.4829C299.5 60.9829 284 76.4829 292.326 87.4829M267.826 76.4829C265 81.4829 256.407 88.926 260.826 95.4829C263.318 99.1786 266.415 100.347 270.826 100.983C280.538 102.383 281.695 77.8157 289.326 83.9829C289.326 83.9829 291.155 86.1161 292.326 87.4829M292.326 87.4829C295.957 93.4829 296.643 95.0623 301.326 95.4829C304.158 95.7373 306.057 95.1949 308.326 93.4829M4 83.9829C4.00037 95.4829 6 141.482 22 145.982C38 150.483 82.0262 11.7518 80 29.4827C76.0004 64.4824 73.9996 146.482 80 135.982C86.0004 125.483 138.494 -11.6709 150.326 5.48244C155.5 12.9826 150.326 29.4827 150.326 29.4827M266 31.9826C266 31.4828 264.409 28.9015 267 29.4827C269.326 30.0042 271.757 31.1131 271.5 33.4826C271.276 35.5462 269 35.4824 269 35.4824C269 35.4824 266 32.4825 266 31.9826Z" stroke="black" stroke-width="7" stroke-linecap="round"/>
</svg>
