<svg xmlns="http://www.w3.org/2000/svg" width="109" height="73" viewBox="0 0 109 73" fill="none">
  <path d="M29.8167 49.2005C29.614 47.9968 30.6278 45.7891 30.6278 45.7891C30.6278 45.7891 31.236 44.9862 31.6775 44.9865C31.6775 44.9865 26.7841 39.054 26.5726 38.9661C26.3611 38.8782 25.5588 36.558 26.1671 35.1534C26.1671 35.1534 27.3836 34.15 27.9919 33.9496C28.6002 33.7492 40.9684 43.7824 40.9684 43.7824L27.9919 32.9463C27.9919 32.9463 25.1533 27.3272 25.1533 26.7252C25.1533 25.958 25.3222 24.7688 25.7616 24.1165C26.1671 23.5145 27.1809 22.5112 27.7892 22.5112L25.7616 21.5078L18.665 18.2971L11.7713 14.685C11.7713 14.685 4.47197 11.2736 3.45818 10.0699C2.44439 8.86619 1.83605 7.86225 2.03887 6.65852C2.2417 5.4548 2.44446 4.65153 3.45818 3.64818C4.47191 2.64483 7.10783 3.24714 7.10783 3.24714L18.665 6.65852L30.6278 11.2736C30.6278 11.2736 44.0098 16.2907 44.6181 16.4911C45.2264 16.6914 57.5946 22.1101 57.5946 22.1101C57.5946 22.1101 46.2401 16.4049 45.2264 15.488C44.2126 14.5711 40.5629 9.26697 40.1574 8.06321C39.7519 6.85946 40.5629 3.64872 40.9684 3.24714C41.374 2.84555 44.4153 1.44095 45.4291 2.24345C46.4429 3.04594 63.0691 14.083 63.0691 14.083C63.0691 14.083 75.5493 19.6404 82.7366 24.5181C88.2135 28.2351 91.3156 30.4135 95.9159 35.1536C100.699 40.0821 105.243 45.5882 106.459 49.2005C107.676 52.8129 106.459 52.411 106.459 53.816C106.459 55.2209 102.508 61.8427 98.1462 65.2541C94.4493 68.1454 91.8036 69.2894 87.1973 70.2709C82.785 71.211 80.709 71.2745 75.6401 70.2709C70.5711 69.2672 47.4567 64.0498 46.6457 63.4481C45.8346 62.8464 33.6691 54.6183 33.0609 53.816C32.4526 53.0136 30.0195 50.4043 29.8167 49.2005Z" fill="#AFF4C6" fill-opacity="0.5"/>
  <path d="M43.1988 31.5416L27.7892 22.5112M27.7892 22.5112L25.7616 21.5078L18.665 18.2971L11.7713 14.685C11.7713 14.685 4.47197 11.2736 3.45818 10.0699C2.44439 8.86619 1.83605 7.86225 2.03887 6.65852C2.2417 5.4548 2.44446 4.65153 3.45818 3.64818C4.47191 2.64483 7.10783 3.24714 7.10783 3.24714L18.665 6.65852L30.6278 11.2736C30.6278 11.2736 44.0098 16.2907 44.6181 16.4911C45.2264 16.6914 57.5946 22.1101 57.5946 22.1101C57.5946 22.1101 46.2401 16.4049 45.2264 15.488C44.2126 14.5711 40.5629 9.26697 40.1574 8.06321C39.7519 6.85946 40.5629 3.64872 40.9684 3.24714C41.374 2.84555 44.4153 1.44095 45.4291 2.24345C46.4429 3.04594 63.0691 14.083 63.0691 14.083C63.0691 14.083 75.5493 19.6404 82.7366 24.5181C88.2135 28.2351 91.3156 30.4135 95.9159 35.1536C100.699 40.0821 105.243 45.5882 106.459 49.2005C107.676 52.8129 106.459 52.411 106.459 53.816C106.459 55.2209 102.508 61.8427 98.1462 65.2541C94.4493 68.1454 91.8036 69.2894 87.1973 70.2709C82.785 71.211 80.709 71.2745 75.6401 70.2709C70.5711 69.2672 47.4567 64.0498 46.6457 63.4481C45.8346 62.8464 33.6691 54.6183 33.0609 53.816C32.4526 53.0136 30.0195 50.4043 29.8167 49.2005C29.614 47.9968 30.6278 45.7891 30.6278 45.7891C30.6278 45.7891 31.236 44.9862 31.6775 44.9865M27.7892 22.5112C27.1809 22.5112 26.1671 23.5145 25.7616 24.1165C25.3222 24.7688 25.1533 25.958 25.1533 26.7252C25.1533 27.3272 27.9919 32.9463 27.9919 32.9463L40.9684 43.7824C40.9684 43.7824 28.6002 33.7492 27.9919 33.9496C27.3836 34.15 26.1671 35.1534 26.1671 35.1534C25.5588 36.558 26.3611 38.8782 26.5726 38.9661C26.7841 39.054 31.6775 44.9865 31.6775 44.9865M39.3464 52.0099L31.6775 44.9865" stroke="black" stroke-width="3"/>
</svg>