<svg xmlns="http://www.w3.org/2000/svg" width="263" height="176" viewBox="0 0 263 176" fill="none">
  <path d="M192.333 119.607C192.833 116.608 190.333 111.107 190.333 111.107C190.333 111.107 188.833 109.107 187.745 109.107C187.745 109.107 199.812 94.3257 200.333 94.1067C200.855 93.8877 202.833 88.1067 201.333 84.6067C201.333 84.6067 198.333 82.1067 196.833 81.6074C195.333 81.1081 164.833 106.107 164.833 106.107L196.833 79.1074C196.833 79.1074 203.833 65.1067 203.833 63.6067C203.833 61.695 203.417 58.732 202.333 57.1067C201.333 55.6067 198.833 53.1067 197.333 53.1067L202.333 50.6067L219.833 42.6067L236.833 33.6067C236.833 33.6067 254.833 25.1067 257.333 22.1074C259.833 19.1082 261.333 16.6067 260.833 13.6074C260.333 10.6082 259.833 8.60669 257.333 6.10669C254.833 3.60669 248.333 5.10743 248.333 5.10743L219.833 13.6074L190.333 25.1067C190.333 25.1067 157.333 37.6074 155.833 38.1067C154.333 38.6059 123.833 52.1074 123.833 52.1074C123.833 52.1074 151.833 37.8921 154.333 35.6074C156.833 33.3228 165.833 20.1068 166.833 17.1074C167.833 14.1081 165.833 6.10804 164.833 5.10743C163.833 4.10683 156.333 0.607037 153.833 2.60658C151.333 4.60613 110.333 32.1067 110.333 32.1067C110.333 32.1067 79.5571 45.9538 61.8333 58.1074C48.3273 67.3689 40.6776 72.7966 29.3333 84.6074C17.5383 96.8874 6.33334 110.607 3.33334 119.607C0.333344 128.608 3.33334 127.607 3.33334 131.107C3.33334 134.608 13.0763 151.107 23.8333 159.607C32.95 166.811 39.4743 169.662 50.8333 172.107C61.714 174.45 66.8333 174.608 79.3333 172.107C91.8333 169.607 148.833 156.607 150.833 155.107C152.833 153.608 182.833 133.107 184.333 131.107C185.833 129.108 191.833 122.607 192.333 119.607Z" fill="#CECDF7" fill-opacity="0.5"/>
  <path d="M159.333 75.6074L197.333 53.1067M197.333 53.1067L202.333 50.6067L219.833 42.6067L236.833 33.6067C236.833 33.6067 254.833 25.1067 257.333 22.1074C259.833 19.1082 261.333 16.6067 260.833 13.6074C260.333 10.6082 259.833 8.60669 257.333 6.10669C254.833 3.60669 248.333 5.10743 248.333 5.10743L219.833 13.6074L190.333 25.1067C190.333 25.1067 157.333 37.6074 155.833 38.1067C154.333 38.6059 123.833 52.1074 123.833 52.1074C123.833 52.1074 151.833 37.8921 154.333 35.6074C156.833 33.3228 165.833 20.1068 166.833 17.1074C167.833 14.1081 165.833 6.10803 164.833 5.10743C163.833 4.10683 156.333 0.607037 153.833 2.60658C151.333 4.60613 110.333 32.1067 110.333 32.1067C110.333 32.1067 79.5571 45.9538 61.8333 58.1074C48.3273 67.3688 40.6776 72.7966 29.3333 84.6074C17.5384 96.8874 6.33334 110.607 3.33334 119.607C0.333344 128.608 3.33334 127.607 3.33334 131.107C3.33334 134.608 13.0763 151.107 23.8333 159.607C32.95 166.811 39.4743 169.662 50.8333 172.107C61.714 174.45 66.8333 174.608 79.3333 172.107C91.8333 169.607 148.833 156.607 150.833 155.107C152.833 153.608 182.833 133.107 184.333 131.107C185.833 129.108 191.833 122.607 192.333 119.607C192.833 116.608 190.333 111.107 190.333 111.107C190.333 111.107 188.833 109.107 187.745 109.107M197.333 53.1067C198.833 53.1067 201.333 55.6067 202.333 57.1067C203.417 58.732 203.833 61.695 203.833 63.6067C203.833 65.1067 196.833 79.1074 196.833 79.1074L164.833 106.107C164.833 106.107 195.333 81.1081 196.833 81.6074C198.333 82.1067 201.333 84.6067 201.333 84.6067C202.833 88.1067 200.855 93.8877 200.333 94.1067C199.812 94.3257 187.745 109.107 187.745 109.107M168.833 126.607L187.745 109.107" stroke="black" stroke-width="3"/>
</svg>