<svg width="236" height="138" viewBox="0 0 236 138" fill="none" xmlns="http://www.w3.org/2000/svg">
<path d="M44.8974 72.4757C44.8974 72.4757 44.9004 84.4758 46.5311 96.9671M46.5311 96.9671C47.053 100.964 48.1676 121.959 48.1676 121.959M46.5311 96.9671C49.4163 88.9455 53.4409 80.4291 53.4409 80.4291C53.4409 80.4291 58.3337 74.0205 62.8971 72.3774C65.3135 71.5073 69.3916 71.3419 69.3916 71.3419C69.3916 71.3419 75.3949 71.4388 78.8993 72.79C83.8218 74.688 92.4537 82.7162 92.4537 82.7162M92.4537 82.7162C92.4537 82.7162 87.7882 94.2541 87.5329 97.2432C87.0629 102.746 87.0684 103.746 87.582 106.243C88.556 110.978 90.3112 115.363 95.1338 115.702C101.058 116.119 104.087 107.153 104.087 107.153C104.087 107.153 106.31 99.5639 106.014 93.6423C105.754 88.4606 104.651 83.1496 103.948 81.6534C102.537 78.6488 100.421 76.6726 99.4208 76.678C95.4209 76.6999 92.4537 82.7162 92.4537 82.7162ZM135.653 27.4795C135.653 27.4795 130.805 55.5064 130.808 56.0064C130.811 56.5064 128.923 77.017 128.923 77.017M128.923 77.017L127.535 97.5248C127.535 97.5248 127.618 112.773 133.625 113.992C138.13 114.906 140.659 111.242 143.087 106.94C147.048 99.9183 149.743 97.1194 153.477 86.8831C156.449 78.7372 160.379 68.9251 160.363 65.8452C160.352 63.8452 161.576 59.4996 156.316 57.3671C147.797 53.9136 128.923 77.017 128.923 77.017ZM198.307 55.6378C198.307 55.6378 195.605 51.6525 192.286 51.6707C183.818 51.7169 175.45 61.0877 173.879 68.7714C173.879 68.7714 171.063 77.3596 173.95 81.7712C176.607 85.8324 189.108 87.4802 189.001 91.1892C188.657 103.169 175.73 105.233 166.598 108.812M222.152 27.0072L216.948 81.2864M214.233 133.552L216.948 81.2864M216.948 81.2864C184.404 88.5559 216.216 84.4408 231.946 80.9545M15.4949 17.1324L15.7761 68.6346M15.4949 17.1324C15.4949 17.1324 31.5311 5.55051 38.0259 4.51216C44.5206 3.47381 58.5927 13.3118 59.6457 26.3928C61.2548 46.3833 15.7761 68.6346 15.7761 68.6346M15.4949 17.1324L4.14649 26.6958M14.706 129.141L15.7761 68.6346" stroke="black" stroke-width="7" stroke-linecap="round"/>
</svg>
